<svg width="119" height="119" viewBox="0 0 119 119" fill="none" xmlns="http://www.w3.org/2000/svg">
<path d="M3.15897e-08 113.999C-0.000310378 116.761 2.23801 119 4.99944 119C7.76086 119 9.99969 116.762 10 114.001L3.15897e-08 113.999ZM5.0023 93.5602L10.0023 93.5608L10.0023 93.5608L5.0023 93.5602ZM62.9063 78.125C65.6677 78.125 67.9063 75.8864 67.9063 73.125C67.9063 70.3636 65.6677 68.125 62.9063 68.125V78.125ZM114 84.9375C116.761 84.9375 119 82.6989 119 79.9375C119 77.1761 116.761 74.9375 114 74.9375V84.9375ZM83.3438 74.9375C80.5823 74.9375 78.3438 77.1761 78.3438 79.9375C78.3438 82.6989 80.5823 84.9375 83.3438 84.9375V74.9375ZM93.6719 95.2648C93.6719 98.0263 95.9105 100.265 98.6719 100.265C101.433 100.265 103.672 98.0263 103.672 95.2648H93.6719ZM103.672 64.6086C103.672 61.8472 101.433 59.6086 98.6719 59.6086C95.9105 59.6086 93.6719 61.8472 93.6719 64.6086H103.672ZM92.601 0.638463C90.1922 -0.711757 87.1449 0.1464 85.7947 2.55521C84.4445 4.96402 85.3027 8.01132 87.7115 9.36154L92.601 0.638463ZM87.7115 41.5135C85.3027 42.8637 84.4445 45.911 85.7947 48.3198C87.1449 50.7286 90.1922 51.5868 92.601 50.2365L87.7115 41.5135ZM68.125 25.4375C68.125 33.9634 61.2134 40.875 52.6875 40.875V50.875C66.7362 50.875 78.125 39.4862 78.125 25.4375H68.125ZM52.6875 40.875C44.1616 40.875 37.25 33.9634 37.25 25.4375H27.25C27.25 39.4862 38.6387 50.875 52.6875 50.875V40.875ZM37.25 25.4375C37.25 16.9116 44.1616 10 52.6875 10V0C38.6387 0 27.25 11.3888 27.25 25.4375H37.25ZM52.6875 10C61.2134 10 68.125 16.9116 68.125 25.4375H78.125C78.125 11.3888 66.7362 0 52.6875 0V10ZM10 114.001L10.0023 93.5608L0.00229766 93.5596L3.15897e-08 113.999L10 114.001ZM25.4398 68.125C11.3922 68.125 0.00387674 79.512 0.00229766 93.5596L10.0023 93.5608C10.0033 85.0355 16.9146 78.125 25.4398 78.125V68.125ZM25.4398 78.125H62.9063V68.125H25.4398V78.125ZM114 74.9375H98.6719V84.9375H114V74.9375ZM98.6719 74.9375H83.3438V84.9375H98.6719V74.9375ZM103.672 95.2648V79.9375H93.6719V95.2648H103.672ZM103.672 79.9375V64.6086H93.6719V79.9375H103.672ZM87.7115 9.36154C94.8856 13.3829 98.7813 19.367 98.7813 25.4375H108.781C108.781 14.7592 101.961 5.88527 92.601 0.638463L87.7115 9.36154ZM98.7813 25.4375C98.7813 31.508 94.8856 37.4921 87.7115 41.5135L92.601 50.2365C101.961 44.9897 108.781 36.1158 108.781 25.4375H98.7813Z" fill="#BABABA"/>
</svg>
