<svg width="119" height="95" viewBox="0 0 119 95" fill="none" xmlns="http://www.w3.org/2000/svg">
<path d="M73.0572 0.22811C69.9015 -0.667618 66.5306 1.15343 65.6284 4.30924L41.8564 87.3569C40.9548 90.5068 42.7865 93.8702 45.9428 94.7719C49.0985 95.6676 52.4694 93.8466 53.3716 90.6908L77.1436 7.64308C78.0452 4.4932 76.2135 1.12977 73.0572 0.22811ZM28.6706 6.16009C27.1789 6.45669 25.6807 7.20994 24.7702 8.5743L0.998148 44.1662C-0.184512 45.9339 -0.326555 48.194 0.627299 50.0981L18.4563 85.69C19.9237 88.6145 23.5061 89.9315 26.442 88.4663C29.3778 87.0011 30.6954 83.4241 29.2275 80.4937L12.8842 48.0576L34.7996 15.242C36.62 12.5192 35.8587 8.7227 33.1279 6.90158C31.7622 5.99399 30.1623 5.86349 28.6706 6.16009ZM97.0153 6.34401C95.5723 5.86946 94.026 5.79817 92.558 6.53373C89.6222 7.99893 88.3046 11.5759 89.7726 14.5063L106.116 46.9424L84.2003 79.758C82.38 82.4808 83.1413 86.2773 85.8721 88.0984C88.603 89.9136 92.4089 89.1544 94.2298 86.4257L118.002 50.8338C119.185 49.0661 119.327 46.806 118.373 44.9019L100.544 9.31C99.8103 7.85074 98.4583 6.83044 97.0153 6.34401Z" fill="#BABABA"/>
</svg>
